<?xml version="1.0" standalone="no"?>
<!DOCTYPE svg PUBLIC "-//W3C//DTD SVG 20010904//EN"
 "http://www.w3.org/TR/2001/REC-SVG-20010904/DTD/svg10.dtd">
<svg version="1.0" xmlns="http://www.w3.org/2000/svg"
 viewBox="0 0 2600.000000 2600.000000"
 preserveAspectRatio="xMidYMid meet">
<metadata>
Created by potrace 1.15, written by Peter Selinger 2001-2017
</metadata>
<g transform="translate(0.000000,2600.000000) scale(0.100000,-0.100000)"
fill="#000000" stroke="none">
<path d="M12585 21754 c-22 -2 -114 -8 -205 -15 -427 -28 -961 -113 -1381
-219 -1834 -463 -3432 -1528 -4576 -3049 -1263 -1678 -1829 -3799 -1572 -5896
188 -1538 807 -2985 1794 -4190 350 -427 796 -868 1235 -1219 1187 -950 2631
-1554 4135 -1730 379 -45 499 -51 970 -51 532 0 814 20 1260 90 1972 308 3762
1328 5046 2875 1164 1402 1825 3150 1878 4962 36 1250 -193 2427 -695 3573
-74 171 -273 563 -375 740 -823 1436 -2074 2606 -3554 3321 -929 448 -1864
701 -2940 794 -123 11 -934 22 -1020 14z m780 -1314 c1241 -73 2391 -455 3415
-1135 873 -580 1620 -1369 2144 -2269 514 -879 810 -1804 913 -2851 25 -257
25 -973 0 -1230 -116 -1175 -481 -2216 -1112 -3170 -378 -572 -855 -1101
-1390 -1540 -1001 -823 -2236 -1351 -3515 -1504 -315 -38 -451 -46 -835 -46
-372 0 -535 8 -805 41 -887 106 -1726 374 -2495 796 -1370 752 -2443 1942
-3050 3383 -636 1508 -705 3230 -193 4795 567 1732 1827 3193 3456 4009 872
437 1762 671 2752 724 140 8 562 6 715 -3z"/>
<path d="M12605 20030 c-1368 -89 -2637 -581 -3685 -1430 -246 -200 -546 -486
-761 -727 -734 -821 -1244 -1810 -1484 -2878 -110 -488 -155 -907 -155 -1425
0 -407 20 -663 81 -1044 266 -1643 1165 -3122 2514 -4137 1358 -1023 3089
-1465 4785 -1223 1746 249 3313 1206 4352 2659 617 864 1015 1886 1147 2950
36 283 45 453 45 795 0 342 -9 512 -45 795 -207 1672 -1060 3196 -2377 4253
-999 801 -2179 1276 -3467 1397 -198 19 -758 28 -950 15z m925 -455 c530 -50
1012 -157 1490 -330 1759 -637 3122 -2049 3699 -3828 196 -605 285 -1182 285
-1847 0 -544 -49 -953 -175 -1459 -483 -1942 -1917 -3531 -3807 -4215 -617
-224 -1227 -336 -1912 -353 -1134 -27 -2255 272 -3230 860 -603 364 -1165 857
-1605 1407 -767 961 -1217 2112 -1305 3345 -13 180 -13 650 0 830 81 1136 469
2204 1133 3120 410 565 952 1088 1527 1472 902 604 1889 938 2990 1013 181 12
717 4 910 -15z"/>
<path d="M12440 16817 l0 -2323 -69 -47 c-87 -60 -208 -180 -263 -263 l-43
-63 -1760 -3 -1760 -3 0 -545 0 -545 1760 -3 1760 -3 45 -67 c126 -187 354
-350 580 -415 137 -39 340 -51 472 -27 418 76 752 382 858 789 47 177 47 361
-1 546 -27 102 -114 281 -178 366 -62 81 -169 183 -250 238 l-61 42 0 2324 0
2325 -545 0 -545 0 0 -2323z"/>
</g>
</svg>
